<svg width="512" height="512" viewBox="0 0 512 512" fill="none" xmlns="http://www.w3.org/2000/svg">
<path fill-rule="evenodd" clip-rule="evenodd" d="M110.612 250.176C115.297 251.457 118.218 256.687 122.028 259.698C122.407 259.997 122.818 260.275 123.262 260.528C145.739 273.337 196.714 298 256 298C315.286 298 366.261 273.337 388.738 260.528C389.182 260.275 389.593 259.997 389.972 259.698C393.782 256.687 396.703 251.457 401.388 250.176C444.92 238.278 478.675 223.984 496.917 215.465C503.797 212.252 511.946 217.282 511.454 224.859C502.773 358.385 391.721 464 256 464C120.279 464 9.22675 358.385 0.546262 224.859C0.0536934 217.282 8.20297 212.252 15.0826 215.465C33.3254 223.984 67.0798 238.278 110.612 250.176Z" fill="#E2EAF2"/>
<path fill-rule="evenodd" clip-rule="evenodd" d="M288 256C288 238.327 273.673 224 256 224C238.327 224 224 238.327 224 256C224 273.673 238.327 288 256 288C273.673 288 288 273.673 288 256ZM233.5 252C236.538 252 239 254.462 239 257.5C239 260.538 236.538 263 233.5 263C230.462 263 228 260.538 228 257.5C228 254.462 230.462 252 233.5 252ZM245 261C249.971 261 254 265.029 254 270C254 274.971 249.971 279 245 279C240.029 279 236 274.971 236 270C236 265.029 240.029 261 245 261Z" fill="#72AFED"/>
</svg>
